<svg width="36" height="44" viewBox="0 0 36 44" fill="none" xmlns="http://www.w3.org/2000/svg">
<path d="M4.66514 33.4473L19.8604 34.7964C19.8735 33.5709 19.9577 29.3237 20.5652 27.3907C21.2568 25.1843 27.5343 25.9864 29.1306 26.2284C30.0247 21.7313 31.5422 18.8832 31.6079 18.7622C31.6868 18.615 31.8709 18.5597 32.0182 18.6386C32.1654 18.7175 32.2207 18.9016 32.1418 19.0489C32.126 19.0778 30.5376 22.0653 29.6697 26.6281C29.6382 26.7885 29.483 26.8963 29.3226 26.87C26.3956 26.3861 21.5882 26.1468 21.1438 27.5696C20.4731 29.705 20.4653 35.0725 20.4653 35.1251C20.4653 35.2093 20.4284 35.2908 20.368 35.3487C20.3127 35.3986 20.2391 35.4276 20.1628 35.4276C20.1549 35.4276 20.1444 35.4276 20.1365 35.4276L4.61517 34.0495C4.44949 34.0337 4.32589 33.8865 4.34167 33.7208C4.34955 33.5551 4.49946 33.4341 4.66514 33.4473Z" fill="#303030"/>
<path d="M1.73821 26.0022C1.96438 25.6156 2.33256 25.3763 2.83486 25.2895C4.4154 25.016 13.8224 26.0416 15.5975 26.2389C15.7106 25.6419 15.9315 24.1166 15.5449 22.7622C15.1425 21.3526 14.3036 18.4203 16.6968 17.6761C17.8171 17.3263 19.0689 17.4894 20.5153 17.6761C21.6882 17.8286 23.0189 17.9996 24.5101 17.9233C25.2859 17.8839 25.9328 17.8549 26.5193 17.8286C28.4285 17.7445 29.6935 17.6892 32.6231 17.3447C33.2149 17.1659 33.8565 17.2895 34.3404 17.6814C34.8348 18.0811 35.0952 18.6938 35.0347 19.3276L33.1491 39.5275C33.1386 39.6564 33.0465 39.7616 32.9229 39.7931L32.8493 39.8115V40.3375C32.8493 40.448 32.7757 40.5453 32.6678 40.5742L31.1662 40.966C31.011 41.0055 30.8611 40.8898 30.8611 40.7293V40.3112L24.326 41.9549V42.4992C24.326 42.6097 24.255 42.707 24.1471 42.7412L22.0774 43.3802C22.038 43.3934 21.9959 43.396 21.9565 43.3881L20.3917 43.0962C20.2734 43.0752 20.1866 42.97 20.1866 42.849V42.3257L4.28127 40.5689V40.8529C4.28127 40.9765 4.17345 41.0739 4.04985 41.0607L2.70599 40.9029C2.6008 40.8898 2.52191 40.8004 2.52191 40.6952V40.3585C2.40882 40.3138 2.3273 40.2086 2.3273 40.0798V29.3894L1.71455 28.2244C1.70666 28.2113 1.70139 28.1981 1.69614 28.185C1.67247 28.1324 1.23591 26.8622 1.73821 26.0022ZM2.25629 27.9667L2.89272 29.1791C2.91639 29.2238 2.92691 29.2711 2.92691 29.3211V39.8168L21.7172 41.8917L22.059 29.5078C22.0643 29.3395 22.2037 29.2054 22.3694 29.2132C22.5377 29.2185 22.6692 29.3579 22.6639 29.5236L22.3247 41.8365L32.5653 39.2619L34.4325 19.275C34.4719 18.8464 34.2957 18.4282 33.9591 18.1574C33.6225 17.8865 33.1938 17.805 32.7757 17.9365C32.7573 17.9417 32.7389 17.947 32.7178 17.9496C29.7461 18.2994 28.4706 18.3546 26.5429 18.4414C25.9591 18.4677 25.3122 18.4966 24.539 18.5361C22.9926 18.615 21.633 18.4414 20.4338 18.2862C19.0558 18.1074 17.8671 17.9549 16.873 18.2652C15.2661 18.7649 15.5633 20.6478 16.1235 22.6071C16.6573 24.4795 16.1471 26.5676 16.1261 26.6544C16.0893 26.8017 15.9525 26.899 15.7974 26.8806C11.9157 26.4414 4.23394 25.6682 2.93216 25.8944C2.61132 25.9496 2.39042 26.089 2.25629 26.3151C1.96701 26.8069 2.15373 27.6537 2.25629 27.9667Z" fill="#303030"/>
<path d="M6.49554 24.7504C6.66385 24.7504 6.79797 24.6136 6.79797 24.448V11.6827C6.79797 11.5144 6.66122 11.3802 6.49554 11.3802C6.32723 11.3802 6.19311 11.517 6.19311 11.6827V24.448C6.19311 24.6163 6.32986 24.7504 6.49554 24.7504Z" fill="#303030"/>
<path d="M0.962326 11.0331H12.0314C12.1287 11.0331 12.2207 10.9858 12.2786 10.9042C12.3364 10.8253 12.3496 10.7228 12.318 10.6281L8.77297 0.511092C8.7309 0.390119 8.61518 0.308594 8.48632 0.308594H4.50736C4.3785 0.308594 4.26542 0.390119 4.22071 0.511092L0.675673 10.6281C0.644115 10.7202 0.657263 10.8227 0.715119 10.9042C0.772976 10.9858 0.865022 11.0331 0.962326 11.0331Z" fill="#303030"/>
<path d="M5.12543 13.6498C5.29374 13.6498 5.42786 13.5131 5.42786 13.3474V11.6827C5.42786 11.5144 5.29111 11.3802 5.12543 11.3802C4.95711 11.3802 4.82299 11.517 4.82299 11.6827V13.3474C4.82299 13.5131 4.95711 13.6498 5.12543 13.6498Z" fill="#303030"/>
<path d="M8.96232 13.229C9.81439 13.229 10.5087 12.5347 10.5087 11.6827C10.5087 11.5144 10.3719 11.3802 10.2062 11.3802C10.0379 11.3802 9.9038 11.517 9.9038 11.6827C9.9038 12.2008 9.4804 12.6242 8.96232 12.6242C8.44424 12.6242 8.02083 12.2008 8.02083 11.6827C8.02083 11.5144 7.88408 11.3802 7.7184 11.3802C7.55009 11.3802 7.41597 11.517 7.41597 11.6827C7.41597 12.5347 8.11025 13.229 8.96232 13.229Z" fill="#303030"/>
</svg>
